<svg xmlns="http://www.w3.org/2000/svg" viewBox="0 0 800 800">
  <style>
    .st8 {
      fill: none;
      stroke: black;
      stroke-width: 1;
    }
  </style>
  <path class="st8" d="M528.37,650.74c0.2-1.04,3.02-1.22,3.88-1.24c0.4-0.01,1.33-0.07,1.18,0.49c-0.09,0.38-0.99,0.55-1.36,0.65
	c-0.13,0.04-1.12,0.22-2.04,0.31C529.14,651.04,528.31,651.04,528.37,650.74 M526.43,668.24c-0.19,0.34-2.06,3.1-4.73,7.98
	c-3.58,6.56-1.55,1.97-7.09,10.06c-0.93,1.36-2.62,2.73-4.63,5.06c0.15,2.76,6.49,1.18,7.14,1.54c10.64,5.9,11.93-1,19.48-0.89
	c6.13,0.08,6.89,0.94,10.07,1.14c1.99,0.12,6.27-0.4,6.63-2.23c0,0-5.04-2.63-6.17-5.5c-1.69-4.29-1.83-3.66-2.52-4.71
	c-2.09-3.17-3.13-3.67-4.93-6.54c-1.57-2.51-1.08-2.38-1.59-5.8l-0.01-0.06c0,0,8.19,0.62,10.7-0.68c2.9-1.49,5.21-1.16,7.14-4.06
	c0.72-1.08,1.32-2.97,1.44-4.26c0.1-0.95-0.12-0.49,0.62-1.14c1.62-1.42,4.9-1.29,6.27-3.17c1.67-2.27-1.15-4.02-2.93-4.96
	c-3.17-1.67-7.55-1.01-10.79,0.1c-3.45,1.17-7.82,2.5-10.59,5.06c-0.71,0.64-1.64,1.33-2.31,2.03c-0.95,1-2.83,2.49-3.39,2.87
	c-0.51,0.35-1.01-0.46-0.45-0.89c0.15-0.12,1.08-0.6,1.42-1.54c0.34-0.93,0.37-2.03,0.1-3.12c-0.16-1.02-1.27-2.17-2.24-2.65
	c-0.52-0.26-1.01-0.26-1.37-0.34c-0.02-0.01,1.67-0.31,2.6-0.91c0.4-0.25,0.51-0.51,0.51-0.92c0-1.09-3.79-0.68-4.32-0.59
	c-0.97,0.16-1.34,0.21-1.89,0.41c-0.58,0.21-0.86,0.44-1.13,0.68c-1.36,1.21,0.58,1.65,2.31,1.48c0.47-0.05,0.66-0.07,0.9-0.09
	c0.09-0.01-0.7,0.04-1.6,0.65c-0.75,0.5-1.24,1.56-1.43,2.31c-0.19,0.74-0.23,1.84-0.01,2.53c0.37,1.15,0.81,1.48,1.06,1.69
	c0.25,0.21,0.96,0.57,1.06,0.66c0.38,0.35,0.17,1.26-0.69,0.96c-1.12-0.83-2.06-1.44-3.29-2.28c-0.8-0.55-1.86-1.47-2.57-2.13
	c-2.77-2.55-7.35-4.28-10.79-5.45c-3.24-1.1-7.71-1.88-10.69-0.64c-1.86,0.77-4.75,2.68-3.08,4.96c1.37,1.87,2.72,1.24,4.42,2.13
	c0.88,0.46,2.22,1.07,2.31,2.03c0.13,1.29,0.77,3.53,1.49,4.61c1.93,2.91,4.82,3.4,7.91,4.26c3.16,0.86,7.98,0.95,10.48,0.44
	l1.19-0.09"></path>
</svg>